inDegrees=no
num_controls=7
num_derivatives=13
num_iterations=79
num_multipliers=7
num_parameters=0
num_slacks=7
num_states=26
objective=0.446388
objective_accelerations=0.054375
objective_balance=0.003097
objective_effort=0.021547
objective_height=0.361818
objective_ligament=0.005551
solver_duration=1221.198836
status=Solve_Succeeded
success=true
DataType=double
version=3
OpenSimVersion=4.5
endheader
time	/jointset/ground_pelvis/pelvis_tilt/value	/jointset/ground_pelvis/pelvis_tx/value	/jointset/ground_pelvis/pelvis_ty/value	/jointset/hip_l/hip_flexion_l/value	/jointset/hip_l/hip_adduction_l/value	/jointset/hip_l/hip_rotation_l/value	/jointset/back/lumbar_extension/value	/jointset/patellofemoral_l/patellar_flexion_l/value	/jointset/knee_l/knee_flexion_l/value	/jointset/knee_l/knee_adduction_l/value	/jointset/knee_l/knee_rotation_l/value	/jointset/ankle_l/ankle_angle_l/value	/jointset/subtalar_l/subtalar_angle_l/value	/jointset/ground_pelvis/pelvis_tilt/speed	/jointset/ground_pelvis/pelvis_tx/speed	/jointset/ground_pelvis/pelvis_ty/speed	/jointset/hip_l/hip_flexion_l/speed	/jointset/hip_l/hip_adduction_l/speed	/jointset/hip_l/hip_rotation_l/speed	/jointset/back/lumbar_extension/speed	/jointset/patellofemoral_l/patellar_flexion_l/speed	/jointset/knee_l/knee_flexion_l/speed	/jointset/knee_l/knee_adduction_l/speed	/jointset/knee_l/knee_rotation_l/speed	/jointset/ankle_l/ankle_angle_l/speed	/jointset/subtalar_l/subtalar_angle_l/speed	/forceset/tau_hip_flexion_l	/forceset/tau_hip_adduction_l	/forceset/tau_hip_rotation_l	/forceset/tau_knee_flexion_l	/forceset/tau_ankle_angle_l	/forceset/tau_subtalar_angle_l	/forceset/tau_lumbar_extension	lambda_cid13_p0	lambda_cid13_p1	lambda_cid13_p2	lambda_cid13_p3	lambda_cid13_p4	lambda_cid13_p5	lambda_cid14_p0	/jointset/ground_pelvis/pelvis_tilt/accel	/jointset/ground_pelvis/pelvis_tx/accel	/jointset/ground_pelvis/pelvis_ty/accel	/jointset/hip_l/hip_flexion_l/accel	/jointset/hip_l/hip_adduction_l/accel	/jointset/hip_l/hip_rotation_l/accel	/jointset/back/lumbar_extension/accel	/jointset/patellofemoral_l/patellar_flexion_l/accel	/jointset/knee_l/knee_flexion_l/accel	/jointset/knee_l/knee_adduction_l/accel	/jointset/knee_l/knee_rotation_l/accel	/jointset/ankle_l/ankle_angle_l/accel	/jointset/subtalar_l/subtalar_angle_l/accel	gamma_cid13_p0	gamma_cid13_p1	gamma_cid13_p2	gamma_cid13_p3	gamma_cid13_p4	gamma_cid13_p5	gamma_cid14_p0
1.5	-0.3345285189169588	-0.007502334483692392	0.7704267676823542	1.039605812701575	-0.4371427560470129	-0.2150476754442174	-0.2248131098997403	0.7948469451730928	0.7948469451730944	-0.1376425998881651	-0.1450114565773971	0.1496396499870518	-0.009715960518069462	0.5944098131588903	0.235770571106034	0.4961085815575916	-2.273886819246074	0.2169553161185263	-0.7135257651049551	0.3150293460216923	-1.982960636129301	-1.982960636129183	-0.1115563666407548	0.1336789924783287	-0.4645983750364509	0.007737017428980688	-0.1602456854674821	0.04626381587594226	-0.008086467087451874	-0.2087843052957288	0.03920849676801781	0.02741332600268461	0.15930006063508	-19.98347835302228	-11.1028547950426	4.5139012769366	-6.855298681732192	-523.0700057810685	-49.47763772444753	-25.42039197388613	0.5435602747273872	0.6462325362013588	-0.4709398178145928	-1.224282267835589	0.6950373373936847	-0.1431946151227111	1.467931600954324	-1.335585099663944	-1.33558509966397	0.09064299170340467	0.2432002136886419	-0.4558240328645796	0.5307072277950131	3.854718673570254e-07	1.050604118864006e-06	-1.650741726964115e-06	1.092921142710475e-07	5.078243319177452e-07	2.810701810279032e-07	3.678362200496794e-07
1.51	-0.328557259836298	-0.005112585850279546	0.7753632850259137	1.016807493494244	-0.4349398282099226	-0.2221889130117932	-0.2215906048153391	0.774952966353009	0.7749529663530091	-0.1387563140440174	-0.1436638055201047	0.144971139363365	-0.00961369278136842	0.5997614575921965	0.2421445588870845	0.4910866163624268	-2.285447664315993	0.2236093916691135	-0.7146294674596558	0.3294338372543076	-1.995544557550199	-1.995544557550132	-0.111168855277671	0.1358291295740867	-0.4690283838008824	0.01272406510154381	-0.1549455896475043	0.04532258285905599	-0.007738512698569864	-0.2055467605497051	0.03920419160238312	0.02680828420365778	0.1549184874077161	-19.79356062037158	-10.89856393513056	4.51014490523591	-6.64255039185144	-519.3556091862325	-49.70151555014343	-26.31511226361483	0.5189063339698223	0.6278169285518034	-0.5339564282287215	-1.072552178038485	0.6475405446729664	-0.0797799295578491	1.421032843554312	-1.176283949867475	-1.176283949875194	0.01557071236782828	0.1972675987853598	-0.4252494355720619	0.4838413140375765	3.911654657312279e-07	1.109339465610781e-06	-1.633218830992578e-06	1.18116991518572e-07	5.325611973209049e-07	3.332218226206146e-07	3.687262142791045e-07
1.52	-0.322534896350038	-0.002660130333157482	0.7802463564059492	0.9939034525259212	-0.4326709700411694	-0.2293383519796946	-0.2182251898267836	0.7549418506614141	0.7549418506613959	-0.1398655999855408	-0.1422953836635513	0.1402605966245666	-0.009461327012531542	0.6046306942790071	0.2483119478478775	0.4854193888528168	-2.295031171444657	0.2301413824509632	-0.7151660451709132	0.3436113268524971	-2.006388010433684	-2.006388010433669	-0.1106707237643057	0.1378331523204811	-0.4730047980588973	0.01775662385613314	-0.1496454938275001	0.04438134984218993	-0.007390558310025977	-0.2023092158036446	0.03919988643675865	0.02620324240466566	0.1505369141803674	-19.60639274547787	-10.69705568362933	4.510561519737494	-6.466729210690743	-515.7023124076986	-49.97411186979063	-27.21005370627291	0.4470787254281832	0.6049127721499529	-0.5999922807036117	-0.8288146795844581	0.6706203836461887	-0.02976968643405084	1.422531274069059	-0.9874913921814046	-0.9874913921813937	0.1127670217596926	0.2139773438158859	-0.3651051315811379	0.5398094442002958	3.949342371794614e-07	1.242693803420474e-06	-1.556720789820893e-06	1.451772057866561e-07	5.510515406869749e-07	3.912123051833829e-07	3.717657244400869e-07
1.53	-0.3164663031784572	-0.0001470242844396467	0.7850696525218319	0.9709131859020294	-0.4303375380500719	-0.2364909611819745	-0.2147194399667974	0.7348308445896194	0.7348308445896137	-0.1409693148878949	-0.1409081207992292	0.13551256625702	-0.00925854138042928	0.6089919003564402	0.2542747364170559	0.4791412775759056	-2.302695153976543	0.2365162693673675	-0.7152500920951383	0.3574824491032284	-2.015529823839903	-2.015529823839959	-0.1100765740214161	0.139609308254349	-0.4765194257413613	0.022802856592143	-0.1438965747300444	0.04295090733485085	-0.007110190177589347	-0.2000099027193628	0.04036850724155704	0.02537899986420018	0.1458126327645954	-19.0640558383816	-10.45533980818352	4.496347138024884	-6.506472712207658	-512.2582620204141	-50.17532003069233	-28.10545747551388	0.4162419408083068	0.5868263721305295	-0.6563902131801201	-0.6861261841889134	0.6165945630851607	0.01848009273316097	1.360973294136384	-0.8350952898409569	-0.8350952898516372	0.03229324935741225	0.1576226888958111	-0.3323093420842382	0.4872890745535411	3.966578800188529e-07	1.455330819234518e-06	-1.41756165687405e-06	1.916124656390845e-07	5.629049543886369e-07	4.554065562768363e-07	3.770890952783489e-07
1.54	-0.3103569778677217	0.002424682544535499	0.7898272335925463	0.9478560922239755	-0.4279412228463206	-0.2436411703958698	-0.2110766647655924	0.7146369065887601	0.7146369065887725	-0.1420671774330426	-0.1395034587814372	0.130731856061547	-0.009005241643716425	0.6127771221101801	0.2600321038993396	0.4722763798191877	-2.308396582276357	0.2427180249816795	-0.7146860474933667	0.3710163950964167	-2.022974396246079	-2.022974396246206	-0.109500252326377	0.1413129830171609	-0.479540763644032	0.02785944477824152	-0.1381476556326222	0.04152046482749464	-0.006829822045050289	-0.1977105896350947	0.04153712804635108	0.02455475732370966	0.1410883513488003	-18.52253517350243	-10.21641825319607	4.485934161045925	-6.585729709130724	-508.8448694126576	-50.42133591538494	-29.0022361470227	0.331881860689365	0.5638285547711094	-0.7173495766649346	-0.4363038331699015	0.6359941232277365	0.09984861876528511	1.355096022560375	-0.6480431921730038	-0.6480431921730057	0.1092014121895572	0.1994811096046631	-0.2664471756223533	0.5418805342180718	3.853882938643179e-07	1.566657545456493e-06	-1.300733148817255e-06	2.232501362676902e-07	5.535708571646525e-07	4.957704997705266e-07	3.722595606871558e-07
1.55	-0.3042126524241692	0.005052777861128326	0.7945132740342351	0.9247519930443592	-0.4254837174439275	-0.2507826406605915	-0.2073001967064326	0.6943771944664492	0.6943771944664582	-0.1431590706817606	-0.1380821087850543	0.1259233828685519	-0.008701265998747692	0.6160015618983011	0.2655362698485329	0.4648401666745385	-2.312091002466946	0.2487472294667002	-0.713500236991283	0.3842140327631255	-2.028675480752693	-2.028675480752745	-0.1088847800502507	0.1429462255175903	-0.4820804943254525	0.03292571491642327	-0.132941052934704	0.04044888345169375	-0.006483565506746703	-0.1945141536967908	0.04121906688427348	0.02370000668723163	0.1367209291487475	-18.47281410101054	-9.879324970202685	4.46122658716317	-6.172772892213216	-505.6071511444095	-50.56392276310464	-29.9015207311406	0.3047653691100815	0.5361563682905245	-0.7703882444598474	-0.2861663167759367	0.5809673610871358	0.1444299883716543	1.292620042635971	-0.4873282707611063	-0.4873282707498726	0.0369647977071627	0.1433670775556291	-0.2366768844132994	0.4873913812046752	3.591482482167814e-07	1.561257198887613e-06	-1.209633404220733e-06	2.378384106166752e-07	5.198250625698157e-07	5.086777845079698e-07	3.557321133185476e-07
